<?xml version="1.0" standalone="no"?>
<!DOCTYPE svg PUBLIC "-//W3C//DTD SVG 20010904//EN"
 "http://www.w3.org/TR/2001/REC-SVG-20010904/DTD/svg10.dtd">
<svg version="1.0" xmlns="http://www.w3.org/2000/svg"
 width="222.000000pt" height="227.000000pt" viewBox="0 0 222.000000 227.000000"
 preserveAspectRatio="xMidYMid meet">

<g transform="translate(0.000000,227.000000) scale(0.100000,-0.100000)"
fill="#000000" stroke="none">
<path d="M1009 2259 c-355 -37 -679 -251 -862 -569 l-26 -45 185 -144 c102
-79 186 -142 187 -140 1 2 19 38 39 79 72 144 174 247 313 315 97 48 172 65
288 65 152 0 292 -46 386 -126 21 -19 43 -34 48 -34 4 0 78 69 162 154 176
176 171 155 61 238 -86 66 -265 152 -367 178 -83 20 -240 41 -303 38 -19 0
-69 -4 -111 -9z"/>
<path d="M1140 1123 l0 -213 305 0 c187 0 305 -4 305 -10 0 -20 -48 -140 -73
-181 -27 -46 -96 -122 -134 -147 l-23 -14 43 -31 c23 -16 44 -33 47 -36 3 -3
23 -19 45 -36 22 -16 42 -31 45 -35 3 -3 23 -18 45 -35 22 -16 42 -32 45 -35
3 -3 25 -20 49 -38 l45 -32 24 23 c46 43 144 180 183 258 49 99 85 209 105
319 15 88 20 299 8 398 l-6 57 -529 0 -529 0 0 -212z"/>
</g>
</svg>
